# xmcd
#
# Track frame offsets:
#	150
#	13140
#	32384
#	51955
#	71516
#
# Disc length: 1183 seconds
#
# Revision: 1
# Processed by: cddbd v1.5.1PL2 Copyright (c) Steve Scherf et al.
# Submitted via: audiograbber 1.81.03
#
DISCID=39049d05
DTITLE=RYAN BALES BAND - RYAN BALES BAND
DYEAR=1900
DGENRE=
TTITLE0=THINGS ARE LOOKING UP
TTITLE1=OUTLAW
TTITLE2=TARYN'S SONG
TTITLE3=LONESTAR FAME
TTITLE4=HEARTBREAKER
EXTD=
EXTT0=
EXTT1=
EXTT2=
EXTT3=
EXTT4=
PLAYORDER=
